<svg xmlns="http://www.w3.org/2000/svg" width="19" height="19" viewBox="0 0 19 19">
    <g fill="#FFF" fill-rule="nonzero">
        <path d="M18.95 18.18c-.227-.996-1.947-7.18-9.456-7.18C1.368 11 .02 18.241.008 18.314c-.029.17.019.345.132.477.113.133.28.209.455.209h17.81a.591.591 0 0 0 .595-.587.569.569 0 0 0-.05-.233zm-17.592-.354c.517-1.648 2.368-5.652 8.135-5.652 5.768 0 7.619 4.004 8.136 5.652H1.359zM10 10c2.757 0 5-2.243 5-5s-2.243-5-5-5C7.241 0 5 2.243 5 5s2.242 5 5 5zm0-8.78A3.785 3.785 0 0 1 13.78 5 3.785 3.785 0 0 1 10 8.78 3.784 3.784 0 0 1 6.22 5 3.784 3.784 0 0 1 10 1.22z"/>
    </g>
</svg>
